{"asset": {"version": "2.0", "generator": "python-script"}, "scene": 0, "scenes": [{"nodes": [0]}], "nodes": [{"mesh": 0, "name": "Arm"}], "meshes": [{"name": "ArmMesh", "primitives": [{"attributes": {"POSITION": 0, "NORMAL": 1}, "indices": 2, "material": 0}]}], "materials": [{"name": "ArmMaterial", "pbrMetallicRoughness": {"baseColorFactor": [0.92, 0.78, 0.62, 1.0], "metallicFactor": 0.0, "roughnessFactor": 0.85}}], "buffers": [{"byteLength": 648, "uri": "data:application/octet-stream;base64,"}], "bufferViews": [{"buffer": 0, "byteOffset": 0, "byteLength": 288, "target": 34962}, {"buffer": 0, "byteOffset": 288, "byteLength": 288, "target": 34962}, {"buffer": 0, "byteOffset": 576, "byteLength": 72, "target": 34963}], "accessors": [{"bufferView": 0, "componentType": 5126, "count": 24, "type": "VEC3", "min": [-0.08, -0.18, -0.6], "max": [0.08, 0.18, 0.0]}, {"bufferView": 1, "componentType": 5126, "count": 24, "type": "VEC3", "min": [-1.0, -1.0, -1.0], "max": [1.0, 1.0, 1.0]}, {"bufferView": 2, "componentType": 5123, "count": 36, "type": "SCALAR"}]}