{"asset": {"version": "2.0", "generator": "InfiniteRailsModelGen"}, "scene": 0, "scenes": [{"nodes": [0]}], "nodes": [{"name": "IronGolem", "children": [1, 2, 3, 4, 5, 6, 7, 8, 9, 10, 11]}, {"name": "GolemTorso", "mesh": 0, "translation": [0, 2.4, 0], "scale": [1.3, 1.6, 0.7]}, {"name": "GolemHead", "mesh": 0, "translation": [0, 3.6, 0], "scale": [0.7, 0.7, 0.7]}, {"name": "GolemLeftArm", "mesh": 0, "translation": [1.6, 2.6, 0], "scale": [0.45, 1.6, 0.45]}, {"name": "GolemRightArm", "mesh": 0, "translation": [-1.6, 2.6, 0], "scale": [0.45, 1.6, 0.45]}, {"name": "GolemLeftLeg", "mesh": 0, "translation": [0.55, 0.9, 0], "scale": [0.5, 1.4, 0.5]}, {"name": "GolemRightLeg", "mesh": 0, "translation": [-0.55, 0.9, 0], "scale": [0.5, 1.4, 0.5]}, {"name": "GolemChestPlate", "mesh": 1, "translation": [0, 2.8, 0.55], "scale": [1.1, 0.5, 0.15]}, {"name": "GolemVines", "mesh": 2, "translation": [-0.9, 2.2, 0.1], "scale": [0.4, 1.6, 0.6]}, {"name": "GolemBrow", "mesh": 1, "translation": [0, 3.8, 0.35], "scale": [0.7, 0.25, 0.1]}, {"name": "GolemLeftEye", "mesh": 3, "translation": [0.22, 3.6, 0.45], "scale": [0.18, 0.18, 0.03]}, {"name": "GolemRightEye", "mesh": 3, "translation": [-0.22, 3.6, 0.45], "scale": [0.18, 0.18, 0.03]}], "meshes": [{"name": "GolemBaseMesh", "primitives": [{"attributes": {"POSITION": 0}, "indices": 1, "material": 0}]}, {"name": "GolemAccentMesh", "primitives": [{"attributes": {"POSITION": 0}, "indices": 1, "material": 1}]}, {"name": "GolemVineMesh", "primitives": [{"attributes": {"POSITION": 0}, "indices": 1, "material": 2}]}, {"name": "GolemEyeMesh", "primitives": [{"attributes": {"POSITION": 0}, "indices": 1, "material": 3}]}], "materials": [{"name": "GolemBase", "pbrMetallicRoughness": {"baseColorFactor": [0.85, 0.82, 0.76, 1.0], "metallicFactor": 0.05, "roughnessFactor": 0.9}, "doubleSided": true, "extensions": {"KHR_materials_unlit": {}}}, {"name": "GolemAccent", "pbrMetallicRoughness": {"baseColorFactor": [0.65, 0.47, 0.37, 1.0], "metallicFactor": 0, "roughnessFactor": 1}, "doubleSided": true, "extensions": {"KHR_materials_unlit": {}}}, {"name": "GolemVine", "pbrMetallicRoughness": {"baseColorFactor": [0.3, 0.55, 0.3, 1.0], "metallicFactor": 0, "roughnessFactor": 1}, "doubleSided": true, "extensions": {"KHR_materials_unlit": {}}}, {"name": "GolemEye", "pbrMetallicRoughness": {"baseColorFactor": [0.84, 0.24, 0.24, 1.0], "metallicFactor": 0, "roughnessFactor": 1}, "doubleSided": true, "extensions": {"KHR_materials_unlit": {}}}], "buffers": [{"uri": "data:application/octet-stream;base64,", "byteLength": 168}], "bufferViews": [{"buffer": 0, "byteOffset": 0, "byteLength": 96, "target": 34962}, {"buffer": 0, "byteOffset": 96, "byteLength": 72, "target": 34963}], "accessors": [{"bufferView": 0, "componentType": 5126, "count": 8, "type": "VEC3", "min": [-0.5, -0.5, -0.5], "max": [0.5, 0.5, 0.5]}, {"bufferView": 1, "componentType": 5123, "count": 36, "type": "SCALAR"}], "extensionsUsed": ["KHR_materials_unlit"]}