{"asset":{"version":"2.0","generator":"InfiniteRails steve builder"},"scenes":[{"nodes":[0]}],"scene":0,"nodes":[{"name":"SteveRoot","children":[1]},{"name":"Hips","translation":[0,0.9,0],"children":[2,5,8,11,14]},{"name":"Torso","translation":[0,0.3,0],"scale":[0.6,0.6,0.32],"mesh":0,"children":[3]},{"name":"HeadPivot","translation":[0,0.6,0],"children":[4,17,18,19,20]},{"name":"Head","translation":[0,0.15,0],"scale":[0.38,0.3,0.38],"mesh":1},{"name":"LeftArm","translation":[0.34,0.5,0],"children":[6,7]},{"name":"LeftSleeve","translation":[0,-0.15,0],"scale":[0.22,0.3,0.22],"mesh":0},{"name":"LeftHand","translation":[0,-0.45,0],"scale":[0.22,0.3,0.22],"mesh":1},{"name":"RightArm","translation":[-0.34,0.5,0],"children":[9,10]},{"name":"RightSleeve","translation":[0,-0.15,0],"scale":[0.22,0.3,0.22],"mesh":0},{"name":"RightHand","translation":[0,-0.45,0],"scale":[0.22,0.3,0.22],"mesh":1},{"name":"LeftLeg","translation":[0.18,0,0],"children":[12,13]},{"name":"LeftThigh","translation":[0,-0.35,0],"scale":[0.26,0.7,0.26],"mesh":2},{"name":"LeftBoot","translation":[0,-0.8,0.02],"scale":[0.26,0.2,0.32],"mesh":3},{"name":"RightLeg","translation":[-0.18,0,0],"children":[15,16]},{"name":"RightThigh","translation":[0,-0.35,0],"scale":[0.26,0.7,0.26],"mesh":2},{"name":"RightBoot","translation":[0,-0.8,0.02],"scale":[0.26,0.2,0.32],"mesh":3},{"name":"Hair","translation":[0,0.28,-0.02],"scale":[0.44,0.18,0.46],"mesh":4},{"name":"Fringe","translation":[0,0.18,0.18],"scale":[0.42,0.16,0.08],"mesh":4},{"name":"LeftEye","translation":[-0.1,0.08,0.19],"scale":[0.08,0.08,0.02],"mesh":5},{"name":"RightEye","translation":[0.1,0.08,0.19],"scale":[0.08,0.08,0.02],"mesh":5}],"meshes":[{"name":"CubeShirt","primitives":[{"attributes":{"POSITION":0,"NORMAL":1},"indices":2,"material":0}]},{"name":"CubeSkin","primitives":[{"attributes":{"POSITION":0,"NORMAL":1},"indices":2,"material":1}]},{"name":"CubeJeans","primitives":[{"attributes":{"POSITION":0,"NORMAL":1},"indices":2,"material":2}]},{"name":"CubeBoot","primitives":[{"attributes":{"POSITION":0,"NORMAL":1},"indices":2,"material":3}]},{"name":"CubeHair","primitives":[{"attributes":{"POSITION":0,"NORMAL":1},"indices":2,"material":4}]},{"name":"CubeEye","primitives":[{"attributes":{"POSITION":0,"NORMAL":1},"indices":2,"material":5}]}],"materials":[{"name":"Shirt","pbrMetallicRoughness":{"baseColorFactor":[0.23,0.57,0.85,1],"metallicFactor":0,"roughnessFactor":0.5}},{"name":"Skin","pbrMetallicRoughness":{"baseColorFactor":[0.77,0.56,0.4,1],"metallicFactor":0,"roughnessFactor":0.7}},{"name":"Jeans","pbrMetallicRoughness":{"baseColorFactor":[0.16,0.27,0.55,1],"metallicFactor":0.1,"roughnessFactor":0.6}},{"name":"Boot","pbrMetallicRoughness":{"baseColorFactor":[0.09,0.11,0.16,1],"metallicFactor":0.2,"roughnessFactor":0.5}},{"name":"Hair","pbrMetallicRoughness":{"baseColorFactor":[0.23,0.17,0.11,1],"metallicFactor":0,"roughnessFactor":0.8}},{"name":"Eye","pbrMetallicRoughness":{"baseColorFactor":[0.12,0.21,0.39,1],"metallicFactor":0,"roughnessFactor":0.4}}],"buffers":[{"uri":"data:application/octet-stream;base64,","byteLength":776}],"bufferViews":[{"buffer":0,"byteOffset":0,"byteLength":288,"target":34962},{"buffer":0,"byteOffset":288,"byteLength":288,"target":34962},{"buffer":0,"byteOffset":576,"byteLength":72,"target":34963},{"buffer":0,"byteOffset":648,"byteLength":12},{"buffer":0,"byteOffset":660,"byteLength":36},{"buffer":0,"byteOffset":696,"byteLength":20},{"buffer":0,"byteOffset":716,"byteLength":60}],"accessors":[{"bufferView":0,"componentType":5126,"count":24,"type":"VEC3","max":[0.5,0.5,0.5],"min":[-0.5,-0.5,-0.5]},{"bufferView":1,"componentType":5126,"count":24,"type":"VEC3"},{"bufferView":2,"componentType":5123,"count":36,"type":"SCALAR"},{"bufferView":3,"componentType":5126,"count":3,"type":"SCALAR","min":[0],"max":[3]},{"bufferView":4,"componentType":5126,"count":3,"type":"VEC3","min":[0,0,0],"max":[0,0.025,0]},{"bufferView":5,"componentType":5126,"count":5,"type":"SCALAR","min":[0],"max":[1.6]},{"bufferView":6,"componentType":5126,"count":5,"type":"VEC3","min":[0,0,-0.05],"max":[0,0,0.05]}],"animations":[{"name":"Idle","samplers":[{"input":3,"output":4,"interpolation":"LINEAR"}],"channels":[{"sampler":0,"target":{"node":1,"path":"translation"}}]},{"name":"Walk","samplers":[{"input":5,"output":6,"interpolation":"LINEAR"}],"channels":[{"sampler":0,"target":{"node":1,"path":"translation"}}]}]}