{"asset": {"version": "2.0", "generator": "InfiniteRailsModelGen"}, "scene": 0, "scenes": [{"nodes": [0]}], "nodes": [{"name": "Zombie", "children": [1, 2, 3, 4, 5, 6, 7, 8]}, {"name": "ZombieTorso", "mesh": 0, "translation": [0, 1.8, 0], "scale": [0.6, 1.2, 0.35]}, {"name": "ZombieHead", "mesh": 1, "translation": [0, 2.7, 0], "scale": [0.6, 0.6, 0.6]}, {"name": "ZombieLeftArm", "mesh": 2, "translation": [0.85, 1.95, 0], "scale": [0.25, 1.2, 0.25]}, {"name": "ZombieRightArm", "mesh": 2, "translation": [-0.85, 1.95, 0], "scale": [0.25, 1.2, 0.25]}, {"name": "ZombieLeftLeg", "mesh": 2, "translation": [0.3, 0.6, 0], "scale": [0.3, 1.2, 0.3]}, {"name": "ZombieRightLeg", "mesh": 2, "translation": [-0.3, 0.6, 0], "scale": [0.3, 1.2, 0.3]}, {"name": "ZombieLeftEye", "mesh": 3, "translation": [0.18, 2.8, 0.35], "scale": [0.12, 0.12, 0.02]}, {"name": "ZombieRightEye", "mesh": 3, "translation": [-0.18, 2.8, 0.35], "scale": [0.12, 0.12, 0.02]}], "meshes": [{"name": "ZombieTorsoMesh", "primitives": [{"attributes": {"POSITION": 0}, "indices": 1, "material": 0}]}, {"name": "ZombieHeadMesh", "primitives": [{"attributes": {"POSITION": 0}, "indices": 1, "material": 1}]}, {"name": "ZombieLimbMesh", "primitives": [{"attributes": {"POSITION": 0}, "indices": 1, "material": 2}]}, {"name": "ZombieEyeMesh", "primitives": [{"attributes": {"POSITION": 0}, "indices": 1, "material": 3}]}], "materials": [{"name": "ZombieTorso", "pbrMetallicRoughness": {"baseColorFactor": [0.1, 0.2, 0.6, 1.0], "metallicFactor": 0, "roughnessFactor": 1}, "doubleSided": true, "extensions": {"KHR_materials_unlit": {}}}, {"name": "ZombieSkin", "pbrMetallicRoughness": {"baseColorFactor": [0.1, 0.6, 0.2, 1.0], "metallicFactor": 0, "roughnessFactor": 1}, "doubleSided": true, "extensions": {"KHR_materials_unlit": {}}}, {"name": "ZombieLeg", "pbrMetallicRoughness": {"baseColorFactor": [0.25, 0.05, 0.4, 1.0], "metallicFactor": 0, "roughnessFactor": 1}, "doubleSided": true, "extensions": {"KHR_materials_unlit": {}}}, {"name": "ZombieEye", "pbrMetallicRoughness": {"baseColorFactor": [0.85, 0.15, 0.15, 1.0], "metallicFactor": 0, "roughnessFactor": 1}, "doubleSided": true, "extensions": {"KHR_materials_unlit": {}}}], "buffers": [{"uri": "data:application/octet-stream;base64,", "byteLength": 168}], "bufferViews": [{"buffer": 0, "byteOffset": 0, "byteLength": 96, "target": 34962}, {"buffer": 0, "byteOffset": 96, "byteLength": 72, "target": 34963}], "accessors": [{"bufferView": 0, "componentType": 5126, "count": 8, "type": "VEC3", "min": [-0.5, -0.5, -0.5], "max": [0.5, 0.5, 0.5]}, {"bufferView": 1, "componentType": 5123, "count": 36, "type": "SCALAR"}], "extensionsUsed": ["KHR_materials_unlit"]}